# xmcd
#
# Track frame offsets:
# 150
# 42997
# 68209
# 124384
# 166062
# 202026
# 239902
# 279473
#
# Disc length: 4188 seconds
#
#
# Revision: 0
# Processed by: cddbd v1.5.2PL0 Copyright (c) Steve Scherf et al.
# Submitted via: FreeRIP 2.96 
#
DISCID=7b105a08
DTITLE=Donna Leon -  Lasset die Kinder zu mir kommen CD3v8
DYEAR=2008
DGENRE=Hörbuch
TTITLE0=15 Lasset die Kinder zu mir kommen
TTITLE1=16 Lasset die Kinder zu mir kommen
TTITLE2=17 Lasset die Kinder zu mir kommen
TTITLE3=18 Lasset die Kinder zu mir kommen
TTITLE4=19 Lasset die Kinder zu mir kommen
TTITLE5=20 Lasset die Kinder zu mir kommen
TTITLE6=21 Lasset die Kinder zu mir kommen
TTITLE7=22 Lasset die Kinder zu mir kommen
EXTD=ungekuerzte Lesung,\ngelesen von Jochen Striebeck
EXTT0=
EXTT1=
EXTT2=
EXTT3=
EXTT4=
EXTT5=
EXTT6=
EXTT7=
PLAYORDER=
